<svg width="2000" height="2000" viewBox="0 0 2000 2000" fill="none" xmlns="http://www.w3.org/2000/svg">
<g clip-path="url(#clip0_26_2)">
<rect width="2000" height="2000" rx="150" fill="#FF9900"/>
<rect x="839" y="328.622" width="327" height="1130" rx="91" fill="black"/>
<path d="M578.843 1214.8C574.348 1258.26 587.832 1295.72 619.296 1327.19L900.218 1608.16C927.186 1635.14 960.148 1648.62 999.102 1648.62C1038.06 1648.62 1071.02 1635.14 1097.99 1608.16L1378.91 1327.19C1410.37 1295.72 1424.61 1258.26 1421.61 1214.8C1418.61 1199.81 1414.87 1186.33 1410.37 1174.34C1399.88 1147.37 1382.65 1126.39 1358.68 1111.4C1334.71 1096.42 1308.49 1088.17 1280.02 1086.68H1140.69V666.34C1140.69 627.379 1126.45 594.411 1097.99 567.437C1069.52 540.464 1036.56 526.228 999.102 524.73C961.646 523.231 928.684 537.467 900.218 567.437C871.751 597.408 858.267 630.376 859.765 666.34V1086.68H718.18C689.713 1086.68 663.494 1094.92 639.522 1111.4C615.55 1127.89 598.32 1148.86 587.832 1174.34C583.338 1187.83 580.341 1201.31 578.843 1214.8Z" fill="black"/>
<path d="M759.297 223.238H1245.58V402.953H759.297" fill="black"/>
<path d="M1002.83 236.207C1046.79 236.207 1082.43 200.567 1082.43 156.603C1082.43 112.64 1046.79 77 1002.83 77C958.865 77 923.226 112.64 923.226 156.603C923.226 200.567 958.865 236.207 1002.83 236.207Z" fill="white" stroke="black" stroke-width="35"/>
<path d="M756.781 482.254C800.745 482.254 836.385 446.614 836.385 402.65C836.385 358.687 800.745 323.047 756.781 323.047C712.818 323.047 677.178 358.687 677.178 402.65C677.178 446.614 712.818 482.254 756.781 482.254Z" fill="white" stroke="black" stroke-width="35"/>
<path d="M829.149 308.574C873.113 308.574 908.752 272.934 908.752 228.97C908.752 185.006 873.113 149.367 829.149 149.367C785.185 149.367 749.545 185.006 749.545 228.97C749.545 272.934 785.185 308.574 829.149 308.574Z" fill="white" stroke="black" stroke-width="35"/>
<path d="M1002.83 236.207C958.864 236.207 923.225 200.567 923.225 156.603C923.225 112.64 958.864 77 1002.83 77C1046.79 77 1082.43 112.64 1082.43 156.603C1082.43 200.567 1046.79 236.207 1002.83 236.207Z" fill="white" stroke="black" stroke-width="35"/>
<path d="M1248.88 482.254C1204.91 482.254 1169.27 446.614 1169.27 402.65C1169.27 358.687 1204.91 323.047 1248.88 323.047C1292.84 323.047 1328.48 358.687 1328.48 402.65C1328.48 446.614 1292.84 482.254 1248.88 482.254Z" fill="white" stroke="black" stroke-width="35"/>
<path d="M1176.51 308.574C1132.55 308.574 1096.91 272.934 1096.91 228.97C1096.91 185.006 1132.55 149.367 1176.51 149.367C1220.47 149.367 1256.11 185.006 1256.11 228.97C1256.11 272.934 1220.47 308.574 1176.51 308.574Z" fill="white" stroke="black" stroke-width="35"/>
<path d="M1256.15 402.953H1003.32H750.488" fill="black"/>
<path d="M1256.15 402.953H1003.32M1003.32 402.953L1176.69 227.591M1003.32 402.953V154.524M1003.32 402.953L829.95 227.591M1003.32 402.953H750.488" stroke="white" stroke-width="45"/>
<path d="M1094.94 543.087C1094.94 528.557 1089.37 514.353 1078.93 502.272C1068.5 490.191 1053.66 480.775 1036.31 475.215C1018.96 469.654 999.863 468.199 981.441 471.034C963.019 473.869 946.097 480.866 932.816 491.14C919.534 501.414 910.489 514.504 906.825 528.755C903.16 543.005 905.041 557.777 912.229 571.2C919.417 584.624 931.589 596.098 947.207 604.17C962.824 612.242 981.185 616.551 999.968 616.551C1018.75 616.551 1037.11 620.86 1052.73 628.932C1068.35 637.004 1080.52 648.478 1087.71 661.902C1094.9 675.326 1096.78 690.097 1093.11 704.347C1089.45 718.598 1080.4 731.688 1067.12 741.962C1053.84 752.237 1036.92 759.233 1018.5 762.068C1000.07 764.903 980.979 763.448 963.625 757.887C946.272 752.327 931.44 742.911 921.005 730.83C910.57 718.749 905 704.545 905 690.015" stroke="white" stroke-width="52"/>
<path d="M1091 810.622L1005 1053.12L909.5 810.622" stroke="white" stroke-width="52"/>
<path d="M1099.94 1249.09C1099.94 1229.6 1089.93 1210.92 1072.12 1197.14C1054.31 1183.36 1030.16 1175.62 1004.97 1175.62C979.781 1175.62 955.626 1183.36 937.816 1197.14C920.006 1210.92 910 1229.6 910 1249.09V1396.02C910 1415.5 920.006 1434.19 937.816 1447.96C955.626 1461.74 979.781 1469.48 1004.97 1469.48C1030.16 1469.48 1054.31 1461.74 1072.12 1447.96C1089.93 1434.19 1099.94 1415.5 1099.94 1396.02V1322.55H1004.97" stroke="white" stroke-width="52"/>
<path d="M236.8 1926V1632H365.6V1671.2H281.2V1752.4H349.2V1792.4H281.2V1886.4H378.8V1926H236.8ZM397.119 1926L465.919 1830.8L401.519 1742.4H452.719L490.319 1799.2L525.919 1742.4H578.319L513.519 1828.4L583.919 1926H534.319L490.719 1861.2L449.119 1926H397.119ZM633.213 1926V1777.6H600.813V1742.4H633.213V1667.6L676.813 1658V1742.4H719.213V1777.6H676.813V1926H633.213ZM752.341 1926V1742.4H795.541V1778.4C799.807 1766.4 806.607 1756.67 815.941 1749.2C825.541 1741.47 836.607 1737.6 849.141 1737.6C857.674 1737.6 863.541 1738.4 866.741 1740L860.741 1783.6C858.341 1782 853.141 1781.2 845.141 1781.2C838.474 1781.2 831.274 1782.67 823.541 1785.6C815.807 1788.53 809.141 1793.73 803.541 1801.2C798.207 1808.4 795.541 1818.53 795.541 1831.6V1926H752.341ZM972.631 1930C956.365 1930 941.165 1926.13 927.031 1918.4C913.165 1910.67 901.965 1899.6 893.431 1885.2C884.898 1870.8 880.631 1853.6 880.631 1833.6C880.631 1814.4 884.231 1797.6 891.431 1783.2C898.898 1768.8 909.298 1757.6 922.631 1749.6C936.231 1741.6 952.365 1737.6 971.031 1737.6C982.231 1737.6 992.365 1739.6 1001.43 1743.6C1010.76 1747.33 1018.5 1752 1024.63 1757.6C1031.03 1762.93 1035.3 1768.13 1037.43 1773.2L1038.23 1742.4H1079.43V1926H1038.63L1037.83 1893.6C1035.16 1899.47 1030.63 1905.2 1024.23 1910.8C1018.1 1916.4 1010.63 1921.07 1001.83 1924.8C993.031 1928.27 983.298 1930 972.631 1930ZM979.831 1894C989.698 1894 998.631 1891.73 1006.63 1887.2C1014.9 1882.4 1021.43 1875.73 1026.23 1867.2C1031.3 1858.67 1033.83 1848.53 1033.83 1836.8V1834C1033.83 1822 1031.3 1811.6 1026.23 1802.8C1021.43 1793.73 1014.9 1786.8 1006.63 1782C998.631 1776.93 989.698 1774.4 979.831 1774.4C961.965 1774.4 948.498 1780.13 939.431 1791.6C930.631 1803.07 926.231 1817.2 926.231 1834C926.231 1851.07 930.631 1865.33 939.431 1876.8C948.498 1888.27 961.965 1894 979.831 1894ZM1219.22 1930C1201.35 1930 1185.09 1926.13 1170.42 1918.4C1156.02 1910.67 1144.42 1899.47 1135.62 1884.8C1127.09 1870.13 1122.82 1852.53 1122.82 1832C1122.82 1812.8 1126.69 1796.13 1134.42 1782C1142.42 1767.87 1153.49 1756.93 1167.62 1749.2C1182.02 1741.47 1198.55 1737.6 1217.22 1737.6C1232.69 1737.6 1245.35 1739.6 1255.22 1743.6C1265.35 1747.6 1272.95 1751.87 1278.02 1756.4L1258.82 1791.2C1257.75 1789.87 1255.62 1787.87 1252.42 1785.2C1249.22 1782.53 1244.95 1780.13 1239.62 1778C1234.55 1775.6 1228.29 1774.4 1220.82 1774.4C1203.22 1774.4 1190.02 1779.73 1181.22 1790.4C1172.69 1801.07 1168.42 1814.8 1168.42 1831.6C1168.42 1851.07 1172.95 1866.4 1182.02 1877.6C1191.35 1888.53 1204.29 1894 1220.82 1894C1229.62 1894 1237.89 1892.8 1245.62 1890.4C1253.35 1887.73 1259.22 1884.93 1263.22 1882L1278.82 1912.4C1274.02 1916.13 1266.42 1920 1256.02 1924C1245.62 1928 1233.35 1930 1219.22 1930ZM1335.95 1926V1777.6H1303.55V1742.4H1335.95V1667.6L1379.55 1658V1742.4H1421.95V1777.6H1379.55V1926H1335.95ZM1537.97 1930C1518.77 1930 1501.84 1925.73 1487.17 1917.2C1472.77 1908.67 1461.57 1897.07 1453.57 1882.4C1445.57 1867.73 1441.57 1851.47 1441.57 1833.6C1441.57 1816 1445.44 1800 1453.17 1785.6C1461.17 1770.93 1472.37 1759.33 1486.77 1750.8C1501.17 1742 1518.24 1737.6 1537.97 1737.6C1557.7 1737.6 1574.77 1742 1589.17 1750.8C1603.57 1759.33 1614.64 1770.93 1622.37 1785.6C1630.1 1800 1633.97 1816 1633.97 1833.6C1633.97 1851.47 1629.97 1867.73 1621.97 1882.4C1614.24 1897.07 1603.17 1908.67 1588.77 1917.2C1574.37 1925.73 1557.44 1930 1537.97 1930ZM1539.17 1894.8C1555.17 1894.8 1567.44 1888.93 1575.97 1877.2C1584.77 1865.47 1589.17 1851.2 1589.17 1834.4C1589.17 1822.93 1587.04 1812.67 1582.77 1803.6C1578.5 1794.27 1572.37 1786.8 1564.37 1781.2C1556.64 1775.6 1547.44 1772.8 1536.77 1772.8C1526.37 1772.8 1517.44 1775.6 1509.97 1781.2C1502.5 1786.8 1496.64 1794.27 1492.37 1803.6C1488.37 1812.67 1486.37 1822.93 1486.37 1834.4C1486.37 1845.6 1488.64 1855.87 1493.17 1865.2C1497.7 1874.27 1503.84 1881.47 1511.57 1886.8C1519.57 1892.13 1528.77 1894.8 1539.17 1894.8ZM1675.78 1926V1742.4H1718.98V1778.4C1723.24 1766.4 1730.04 1756.67 1739.38 1749.2C1748.98 1741.47 1760.04 1737.6 1772.58 1737.6C1781.11 1737.6 1786.98 1738.4 1790.18 1740L1784.18 1783.6C1781.78 1782 1776.58 1781.2 1768.58 1781.2C1761.91 1781.2 1754.71 1782.67 1746.98 1785.6C1739.24 1788.53 1732.58 1793.73 1726.98 1801.2C1721.64 1808.4 1718.98 1818.53 1718.98 1831.6V1926H1675.78Z" fill="black"/>
</g>
<defs>
<clipPath id="clip0_26_2">
<rect width="2000" height="2000" rx="150" fill="white"/>
</clipPath>
</defs>
</svg>
